Coordinates
version=1
nRows=19
nColumns=30
inDegrees=yes

Units are S.I. units (second, meters, Newtons, ...)
Angles are in degrees.

endheader
time	floatyaw	floatroll	floatpitch	floatx	floaty	floatz	pro_sup_l	deviation_l	flexion_l	cmc_flexion_l	cmc_abduction_l	mp_flexion_l	ip_flexion_l	2mcp_flexion_l	2mcp_abduction_l	2pm_flexion_l	2md_flexion_l	3mcp_flexion_l	3mcp_abduction_l	3pm_flexion_l	3md_flexion_l	4mcp_flexion_l	4mcp_abduction_l	4pm_flexion_l	4md_flexion_l	5mcp_flexion_l	5mcp_abduction_l	5pm_flexion_l	5md_flexion_l
-0.995000	-160.147433	-5.066637	-73.570646	0.083490	-0.183023	-0.014470	100.666610	3.307897	-0.771599	14.750965	4.670257	-25.824898	-41.614377	31.312282	6.658593	42.029102	28.766997	24.099098	4.045383	44.405716	29.274558	12.528143	-4.404177	52.848400	36.430599	-0.069882	-7.392892	63.301321	42.643443
-0.985000	-160.147433	-5.066637	-73.570646	0.083492	-0.183016	-0.014466	100.656507	3.306236	-0.761279	14.748435	4.648481	-25.840994	-41.653327	31.311599	6.665077	42.030243	28.761342	24.086889	4.052282	44.401329	29.267294	12.523541	-4.407791	52.854180	36.428089	-0.076569	-7.394978	63.301720	42.628534
-0.975000	-160.147433	-5.066637	-73.570646	0.083494	-0.183012	-0.014461	100.637623	3.301595	-0.749023	14.741808	4.617635	-25.851320	-41.681480	31.314146	6.667830	42.021864	28.750734	24.072411	4.060563	44.395188	29.261065	12.514408	-4.411640	52.861286	36.425691	-0.089207	-7.398779	63.306846	42.621752
-0.965000	-160.147433	-5.066637	-73.570646	0.083495	-0.183008	-0.014451	100.612866	3.296060	-0.737221	14.728470	4.587865	-25.855431	-41.695363	31.318363	6.667865	42.010524	28.741236	24.058780	4.069457	44.389314	29.257566	12.503497	-4.416195	52.871773	36.425006	-0.101666	-7.405625	63.319319	42.622483
-0.955000	-160.147433	-5.066637	-73.570646	0.083495	-0.183004	-0.014440	100.589530	3.292245	-0.728370	14.709071	4.568239	-25.855818	-41.696899	31.321464	6.666822	42.004361	28.738839	24.049211	4.077625	44.385569	29.257911	12.494192	-4.421274	52.886959	36.427016	-0.109113	-7.415219	63.339254	42.628460
-0.945000	-160.147433	-5.066637	-73.570646	0.083493	-0.182998	-0.014430	100.574597	3.291266	-0.723788	14.687238	4.563673	-25.857362	-41.692473	31.321444	6.665912	42.008969	28.746766	24.045876	4.083565	44.384606	29.262192	12.488934	-4.425785	52.905598	36.431411	-0.111228	-7.425444	63.363874	42.636927
-0.935000	-160.147433	-5.066637	-73.570646	0.083490	-0.182988	-0.014427	100.570360	3.291904	-0.722896	14.667727	4.573664	-25.864988	-41.689895	31.318787	6.665178	42.024915	28.764203	24.049122	4.086194	44.385524	29.269443	12.488238	-4.427984	52.923289	36.436447	-0.112331	-7.433382	63.388817	42.645756
-0.925000	-160.147433	-5.066637	-73.570646	0.083487	-0.182977	-0.014431	100.573098	3.291494	-0.723563	14.654128	4.593160	-25.880572	-41.694512	31.316648	6.663634	42.047983	28.786857	24.057516	4.085223	44.386667	29.278124	12.490704	-4.426179	52.934119	36.439667	-0.117860	-7.437079	63.410171	42.653817
-0.915000	-160.147433	-5.066637	-73.570646	0.083483	-0.182967	-0.014440	100.575296	3.287761	-0.723363	14.647249	4.615173	-25.901075	-41.706320	31.319264	6.660248	42.071825	28.809035	24.068679	4.081126	44.387295	29.287038	12.493981	-4.419509	52.933903	36.439213	-0.129388	-7.437019	63.426030	42.660601
-0.905000	-160.147433	-5.066637	-73.570646	0.083480	-0.182958	-0.014448	100.569631	3.280168	-0.721006	14.644844	4.633998	-25.919515	-41.719735	31.329504	6.655050	42.091481	28.826231	24.080441	4.074796	44.388929	29.296087	12.496177	-4.408412	52.922923	36.434912	-0.142106	-7.436239	63.436938	42.665744
-0.895000	-160.147433	-5.066637	-73.570646	0.083476	-0.182954	-0.014450	100.552379	3.269966	-0.717030	14.642704	4.647371	-25.928700	-41.726513	31.347046	6.649504	42.105642	28.836824	24.091611	4.067171	44.394992	29.306150	12.496846	-4.394630	52.906188	36.428440	-0.147252	-7.438737	63.445157	42.668890
-0.885000	-160.147433	-5.066637	-73.570646	0.083469	-0.182954	-0.014444	100.524739	3.259191	-0.713159	14.636470	4.656324	-25.925572	-41.720476	31.368191	6.645763	42.116338	28.841985	24.101875	4.059068	44.408588	29.318010	12.496758	-4.380785	52.890985	36.422464	-0.137927	-7.446969	63.452755	42.669614
-0.875000	-160.147433	-5.066637	-73.570646	0.083459	-0.182957	-0.014432	100.491771	3.249465	-0.710736	14.623307	4.662997	-25.913331	-41.701136	31.387304	6.645254	42.126734	28.844218	24.110947	4.051248	44.429981	29.331227	12.496571	-4.369672	52.883320	36.419336	-0.113536	-7.459998	63.458785	42.666805
-0.865000	-160.147433	-5.066637	-73.570646	0.083447	-0.182961	-0.014419	100.459749	3.241403	-0.709521	14.602820	4.668248	-25.899699	-41.673771	31.399104	6.647613	42.139076	28.845900	24.117792	4.044566	44.455772	29.344041	12.495683	-4.363401	52.885378	36.420082	-0.079347	-7.473631	63.457377	42.657986
-0.855000	-160.147433	-5.066637	-73.570646	0.083435	-0.182964	-0.014410	100.433347	3.234791	-0.707894	14.576946	4.671097	-25.892306	-41.645858	31.400842	6.650813	42.154282	28.848803	24.120900	4.039975	44.480497	29.354459	12.492627	-4.362671	52.895141	36.424110	-0.042370	-7.482543	63.439492	42.640019
-0.845000	-160.147433	-5.066637	-73.570646	0.083424	-0.182963	-0.014407	100.414039	3.229179	-0.704335	14.548973	4.670464	-25.894234	-41.622515	31.393555	6.652454	42.172724	28.854352	24.119587	4.038280	44.499566	29.361675	12.486932	-4.366526	52.907913	36.429662	-0.007843	-7.483044	63.398987	42.611844
-0.835000	-160.147433	-5.066637	-73.570646	0.083416	-0.182958	-0.014408	100.400234	3.224327	-0.698957	14.522235	4.667495	-25.902646	-41.604253	31.381873	6.651280	42.194814	28.863699	24.115200	4.039734	44.511682	29.366749	12.480838	-4.372800	52.918620	36.434683	0.021076	-7.474811	63.339418	42.577482
-0.825000	-160.147433	-5.066637	-73.570646	0.083410	-0.182951	-0.014410	100.388705	3.220210	-0.693896	14.499198	4.666121	-25.911194	-41.588392	31.372437	6.647832	42.220676	28.877278	24.110943	4.043743	44.519352	29.372127	12.479150	-4.379081	52.923820	36.437758	0.041691	-7.460773	63.275955	42.546356
-0.815000	-160.147433	-5.066637	-73.570646	0.083404	-0.182945	-0.014409	100.376298	3.216818	-0.692223	14.481279	4.670784	-25.914421	-41.572707	31.371507	6.643789	42.249461	28.894287	24.110167	4.048980	44.527204	29.380285	12.486868	-4.383761	52.922844	36.438768	0.051265	-7.445457	63.229421	42.529469
